<svg xmlns="http://www.w3.org/2000/svg"  viewBox="0 0 64 64" width="48px" height="48px" baseProfile="basic"><linearGradient id="kY2lFHytK6J7eR89ploKLa" x1="32.485" x2="32.485" y1="26.009" y2="39.6" gradientUnits="userSpaceOnUse"><stop offset="0" stop-color="#1a6dff"/><stop offset=".695" stop-color="#c822ff"/></linearGradient><path fill="url(#kY2lFHytK6J7eR89ploKLa)" d="M26.07,35.31l6.17-3.6l6.66,3.92c-1.3,2.29-3.69,3.7-6.33,3.7 C29.73,39.33,27.26,37.69,26.07,35.31z"/><linearGradient id="kY2lFHytK6J7eR89ploKLb" x1="32" x2="32" y1="27.121" y2="56.372" gradientUnits="userSpaceOnUse"><stop offset="0" stop-color="#1a6dff"/><stop offset=".695" stop-color="#c822ff"/></linearGradient><path fill="url(#kY2lFHytK6J7eR89ploKLb)" d="M52.6,43.67v0.22L32,55.79l-20.6-11.9 l7.7-4.5c2.6,4.77,7.67,8.01,13.47,8.01c5.52,0,10.55-2.93,13.29-7.69L52.6,43.67z"/><linearGradient id="kY2lFHytK6J7eR89ploKLc" x1="31.93" x2="31.93" y1="24.81" y2="35.29" gradientUnits="userSpaceOnUse"><stop offset="0" stop-color="#6dc7ff"/><stop offset=".699" stop-color="#e6abff"/></linearGradient><path fill="url(#kY2lFHytK6J7eR89ploKLc)" d="M38.55,27.97l-6.35,3.72h-0.01l-6.13,3.6 c-0.48-0.97-0.75-2.06-0.75-3.22c0-1.39,0.39-2.68,1.07-3.79c1.28-2.08,3.57-3.47,6.19-3.47C34.98,24.81,37.2,25.98,38.55,27.97z"/><linearGradient id="kY2lFHytK6J7eR89ploKLd" x1="31.87" x2="31.87" y1="8.21" y2="43.89" gradientUnits="userSpaceOnUse"><stop offset="0" stop-color="#6dc7ff"/><stop offset=".699" stop-color="#e6abff"/></linearGradient><path fill="url(#kY2lFHytK6J7eR89ploKLd)" d="M45.12,24.1l0.39-0.24 c-2.83-4.45-7.67-7.12-12.94-7.12c-5.58,0-10.47,3-13.15,7.46c-1.38,2.31-2.18,4.99-2.18,7.87c0,2.65,0.67,5.13,1.85,7.3 l-7.69,4.52V20.11L32,8.21l20.34,11.75L45.12,24.1z"/><linearGradient id="kY2lFHytK6J7eR89ploKLe" x1="15.25" x2="15.25" y1="32.704" y2="48.615" gradientUnits="userSpaceOnUse"><stop offset="0" stop-color="#6dc7ff"/><stop offset=".699" stop-color="#e6abff"/></linearGradient><path fill="url(#kY2lFHytK6J7eR89ploKLe)" d="M19.09,39.37c0,0.01,0.01,0.01,0.01,0.02 l-7.7,4.5L19.09,39.37z"/><linearGradient id="kY2lFHytK6J7eR89ploKLf" x1="29.15" x2="29.15" y1="26.351" y2="39.094" gradientUnits="userSpaceOnUse"><stop offset="0" stop-color="#6dc7ff"/><stop offset=".699" stop-color="#e6abff"/></linearGradient><path fill="url(#kY2lFHytK6J7eR89ploKLf)" d="M32.24,31.71l-6.17,3.6 c0-0.01-0.01-0.01-0.01-0.02l6.13-3.6h0.01L32.24,31.71z"/><linearGradient id="kY2lFHytK6J7eR89ploKLg" x1="15.25" x2="15.25" y1="30.671" y2="43.89" gradientUnits="userSpaceOnUse"><stop offset="0" stop-color="#6dc7ff"/><stop offset=".699" stop-color="#e6abff"/></linearGradient><path fill="url(#kY2lFHytK6J7eR89ploKLg)" d="M19.09,39.37c0,0.01,0.01,0.01,0.01,0.02 l-7.7,4.5L19.09,39.37z"/><linearGradient id="kY2lFHytK6J7eR89ploKLh" x1="29.15" x2="29.15" y1="24.723" y2="35.31" gradientUnits="userSpaceOnUse"><stop offset="0" stop-color="#6dc7ff"/><stop offset=".699" stop-color="#e6abff"/></linearGradient><path fill="url(#kY2lFHytK6J7eR89ploKLh)" d="M32.24,31.71l-6.17,3.6 c0-0.01-0.01-0.01-0.01-0.02l6.13-3.6h0.01L32.24,31.71z"/><linearGradient id="kY2lFHytK6J7eR89ploKLi" x1="42.27" x2="42.27" y1="13.698" y2="56.641" gradientUnits="userSpaceOnUse"><stop offset="0" stop-color="#6dc7ff"/><stop offset=".699" stop-color="#e6abff"/></linearGradient><polygon fill="url(#kY2lFHytK6J7eR89ploKLi)" points="52.34,19.96 32.24,31.71 32.2,31.69 38.55,27.97 45.12,24.1"/><linearGradient id="kY2lFHytK6J7eR89ploKLj" x1="42.27" x2="42.27" y1="8.21" y2="43.887" gradientUnits="userSpaceOnUse"><stop offset="0" stop-color="#6dc7ff"/><stop offset=".699" stop-color="#e6abff"/></linearGradient><polygon fill="url(#kY2lFHytK6J7eR89ploKLj)" points="52.34,19.96 32.24,31.71 32.2,31.69 38.55,27.97 45.12,24.1"/><linearGradient id="kY2lFHytK6J7eR89ploKLk" x1="32" x2="32" y1="1.255" y2="56.081" gradientUnits="userSpaceOnUse"><stop offset="0" stop-color="#1a6dff"/><stop offset="1" stop-color="#c822ff"/></linearGradient><path fill="url(#kY2lFHytK6J7eR89ploKLk)" d="M55.1,16.93L33.5,4.46 c-0.93-0.53-2.07-0.53-3,0L8.9,16.93c-0.92,0.54-1.5,1.53-1.5,2.6v24.94c0,1.07,0.58,2.06,1.5,2.6l21.6,12.47 c0.93,0.53,2.07,0.53,3,0l21.6-12.47c0.92-0.54,1.5-1.53,1.5-2.6V19.53C56.6,18.46,56.02,17.47,55.1,16.93z M54.6,44.47 c0,0.36-0.19,0.69-0.5,0.87L32.5,57.81c-0.31,0.17-0.69,0.17-1,0L9.9,45.34c-0.31-0.18-0.5-0.51-0.5-0.87V19.53 c0-0.36,0.19-0.69,0.5-0.87L31.5,6.19c0.31-0.17,0.69-0.17,1,0l21.6,12.47c0.31,0.18,0.5,0.51,0.5,0.87V44.47z"/><polygon fill="#fff" points="45.86,39.7 45.86,39.71 38.9,35.63"/><linearGradient id="kY2lFHytK6J7eR89ploKLl" x1="42.42" x2="42.42" y1="21" y2="48.745" gradientUnits="userSpaceOnUse"><stop offset="0" stop-color="#6dc7ff"/><stop offset=".699" stop-color="#e6abff"/></linearGradient><path fill="url(#kY2lFHytK6J7eR89ploKLl)" d="M52.34,19.96l-20.1,11.75l6.66,3.92 l6.96,4.08l6.74,3.96V20.11L52.34,19.96z M44,33h-2v2h-2v-2h-2v-2h2v-2h2v2h2V33z M51,33h-2v2h-2v-2h-2v-2h2v-2h2v2h2V33z"/></svg>