<?xml version="1.0" encoding="utf-8"?>
<!-- Generator: Adobe Illustrator 27.9.0, SVG Export Plug-In . SVG Version: 6.00 Build 0)  -->
<svg version="1.1" xmlns="http://www.w3.org/2000/svg" xmlns:xlink="http://www.w3.org/1999/xlink" x="0px" y="0px"
	 viewBox="0 0 512 512" style="enable-background:new 0 0 512 512;" xml:space="preserve">
<style type="text/css">
	.st0{display:none;}
	.st1{display:inline;}
	.st2{fill:#FFFFFF;}
</style>
<g id="White_background_copy" class="st0">
	<rect x="-4" y="-6" class="st1" width="529" height="543"/>
	<g class="st1">
		<g>
			<path class="st2" d="M177.66,378.5h-9.32c-12.06,0-21.84-9.78-21.84-21.84V174.34c0-12.06,9.78-21.84,21.84-21.84h9.32
				c12.06,0,21.84,9.78,21.84,21.84v182.32C199.5,368.72,189.72,378.5,177.66,378.5z"/>
		</g>
		<g>
			<path class="st2" d="M417.5,158.34v14.32c0,12.06-9.78,21.84-21.84,21.84H166.34c-12.06,0-21.84-9.78-21.84-21.84v-14.32
				c0-12.06,9.78-21.84,21.84-21.84h229.32C407.72,136.5,417.5,146.28,417.5,158.34z"/>
		</g>
		<g>
			<circle cx="173" cy="165" r="57"/>
			<path class="st2" d="M173,129.5c19.57,0,35.5,15.93,35.5,35.5s-15.93,35.5-35.5,35.5s-35.5-15.93-35.5-35.5
				S153.43,129.5,173,129.5 M173,86.5c-43.35,0-78.5,35.15-78.5,78.5s35.15,78.5,78.5,78.5s78.5-35.15,78.5-78.5
				S216.35,86.5,173,86.5L173,86.5z"/>
		</g>
		<g>
			<path class="st2" d="M338.66,425.5h-9.32c-12.06,0-21.84-9.78-21.84-21.84V199.34c0-12.06,9.78-21.84,21.84-21.84h9.32
				c12.06,0,21.84,9.78,21.84,21.84v204.32C360.5,415.72,350.72,425.5,338.66,425.5z"/>
		</g>
	</g>
</g>
<g id="White_background_copy_2">
	<g>
		<g>
			<path d="M178.16,380h-9.32c-12.06,0-21.84-9.78-21.84-21.84V175.84c0-12.06,9.78-21.84,21.84-21.84h9.32
				c12.06,0,21.84,9.78,21.84,21.84v182.32C200,370.22,190.22,380,178.16,380z"/>
		</g>
		<g>
			<path d="M417.5,158.34v14.32c0,12.06-9.78,21.84-21.84,21.84H166.34c-12.06,0-21.84-9.78-21.84-21.84v-14.32
				c0-12.06,9.78-21.84,21.84-21.84h229.32C407.72,136.5,417.5,146.28,417.5,158.34z"/>
		</g>
		<g>
			<circle class="st2" cx="173" cy="165" r="57"/>
			<path d="M173,129.5c19.57,0,35.5,15.93,35.5,35.5s-15.93,35.5-35.5,35.5s-35.5-15.93-35.5-35.5S153.43,129.5,173,129.5 M173,86.5
				c-43.35,0-78.5,35.15-78.5,78.5s35.15,78.5,78.5,78.5s78.5-35.15,78.5-78.5S216.35,86.5,173,86.5L173,86.5z"/>
		</g>
		<g>
			<path d="M338.66,425.5h-9.32c-12.06,0-21.84-9.78-21.84-21.84V199.34c0-12.06,9.78-21.84,21.84-21.84h9.32
				c12.06,0,21.84,9.78,21.84,21.84v204.32C360.5,415.72,350.72,425.5,338.66,425.5z"/>
		</g>
	</g>
</g>
</svg>
