<?xml version="1.0" encoding="iso-8859-1"?>
<!-- Generator: Adobe Illustrator 27.9.0, SVG Export Plug-In . SVG Version: 6.00 Build 0)  -->
<svg version="1.1" id="Layer_1" xmlns="http://www.w3.org/2000/svg" xmlns:xlink="http://www.w3.org/1999/xlink" x="0px" y="0px"
	 viewBox="0 0 512 512" style="enable-background:new 0 0 512 512;" xml:space="preserve">
<path style="fill:none;stroke:#000000;stroke-width:10;stroke-miterlimit:10;" d="M395.66,136.5H246.14
	c-11.41-29.26-39.85-50-73.14-50c-43.35,0-78.5,35.15-78.5,78.5c0,34.23,21.93,63.34,52.5,74.07v119.09
	c0,12.06,9.78,21.84,21.84,21.84h9.32c12.06,0,21.84-9.78,21.84-21.84V238.73c20.79-7.62,37.44-23.78,45.75-44.23h62.3
	c-0.35,1.56-0.55,3.18-0.55,4.84v204.32c0,12.06,9.78,21.84,21.84,21.84h9.32c12.06,0,21.84-9.78,21.84-21.84V199.34
	c0-1.66-0.19-3.28-0.55-4.84h35.71c12.06,0,21.84-9.78,21.84-21.84v-14.32C417.5,146.28,407.72,136.5,395.66,136.5z M173.5,200.5
	c-20.85,0-37.75-16.9-37.75-37.75S152.65,125,173.5,125s37.75,16.9,37.75,37.75S194.35,200.5,173.5,200.5z"/>
</svg>
