<?xml version="1.0" standalone="no"?>
<!DOCTYPE svg PUBLIC "-//W3C//DTD SVG 20010904//EN"
 "http://www.w3.org/TR/2001/REC-SVG-20010904/DTD/svg10.dtd">
<svg version="1.0" xmlns="http://www.w3.org/2000/svg"
 width="512.000000pt" height="512.000000pt" viewBox="0 0 512.000000 512.000000"
 preserveAspectRatio="xMidYMid meet">

<g transform="translate(0.000000,512.000000) scale(0.100000,-0.100000)"
fill="#000000" stroke="none">
<path d="M1060 5100 c-143 -24 -190 -37 -297 -80 -349 -142 -618 -436 -714
-780 -23 -85 -49 -247 -49 -310 0 -64 26 -225 50 -311 92 -335 366 -637 702
-774 l83 -34 5 -943 c6 -1050 0 -968 76 -1056 79 -93 163 -122 346 -122 168 0
226 19 316 104 52 48 75 92 91 164 8 37 11 326 11 956 l0 904 58 23 c206 84
394 229 531 412 22 28 61 93 88 142 l48 90 483 0 482 0 3 -1615 2 -1615 22
-47 c66 -141 192 -208 393 -208 199 0 321 62 390 196 l25 49 5 1620 5 1620
325 5 c209 4 337 10 358 17 48 17 125 77 155 120 51 74 67 143 67 293 0 147
-13 213 -54 279 -32 50 -100 109 -155 135 l-46 21 -1227 3 -1227 2 -47 91
c-183 354 -509 581 -933 650 -141 23 -232 22 -371 -1z m334 -656 c151 -39 289
-151 359 -292 l42 -85 0 -136 0 -136 -43 -87 c-72 -144 -206 -252 -367 -293
-118 -31 -279 -14 -389 42 -309 156 -400 524 -194 790 44 57 139 134 197 160
121 53 276 68 395 37z"/>
</g>
</svg>
